<svg width="25" height="24" viewBox="0 0 25 24" fill="none" xmlns="http://www.w3.org/2000/svg">
  <path d="M21.5 3.75C21.5 3.94891 21.421 4.13968 21.2803 4.28033C21.1397 4.42098 20.9489 4.5 20.75 4.5H4.25C4.05109 4.5 3.86032 4.42098 3.71967 4.28033C3.57902 4.13968 3.5 3.94891 3.5 3.75C3.5 3.55109 3.57902 3.36032 3.71967 3.21967C3.86032 3.07902 4.05109 3 4.25 3H20.75C20.9489 3 21.1397 3.07902 21.2803 3.21967C21.421 3.36032 21.5 3.55109 21.5 3.75ZM18.5 6H14.75C14.3522 6 13.9706 6.15804 13.6893 6.43934C13.408 6.72064 13.25 7.10218 13.25 7.5V16.5C13.25 16.8978 13.408 17.2794 13.6893 17.5607C13.9706 17.842 14.3522 18 14.75 18H18.5C18.8978 18 19.2794 17.842 19.5607 17.5607C19.842 17.2794 20 16.8978 20 16.5V7.5C20 7.10218 19.842 6.72064 19.5607 6.43934C19.2794 6.15804 18.8978 6 18.5 6ZM10.25 6H6.5C6.10218 6 5.72064 6.15804 5.43934 6.43934C5.15804 6.72064 5 7.10218 5 7.5V20.25C5 20.6478 5.15804 21.0294 5.43934 21.3107C5.72064 21.592 6.10218 21.75 6.5 21.75H10.25C10.6478 21.75 11.0294 21.592 11.3107 21.3107C11.592 21.0294 11.75 20.6478 11.75 20.25V7.5C11.75 7.10218 11.592 6.72064 11.3107 6.43934C11.0294 6.15804 10.6478 6 10.25 6Z" fill="white"/>
  </svg>
  