<svg width="21" height="20" viewBox="0 0 21 20" fill="none" xmlns="http://www.w3.org/2000/svg">
  <path d="M10.5 17.5C14.6421 17.5 18 14.1421 18 10C18 5.85786 14.6421 2.5 10.5 2.5C6.35786 2.5 3 5.85786 3 10C3 14.1421 6.35786 17.5 10.5 17.5Z" stroke="white" stroke-linecap="round" stroke-linejoin="round"/>
  <path d="M10.5 12.5C12.2259 12.5 13.625 11.1009 13.625 9.375C13.625 7.64911 12.2259 6.25 10.5 6.25C8.77411 6.25 7.375 7.64911 7.375 9.375C7.375 11.1009 8.77411 12.5 10.5 12.5Z" stroke="white" stroke-linecap="round" stroke-linejoin="round"/>
  <path d="M5.48438 15.5781C5.95462 14.6519 6.67216 13.874 7.55745 13.3306C8.44275 12.7872 9.46123 12.4995 10.5 12.4995C11.5388 12.4995 12.5572 12.7872 13.4425 13.3306C14.3278 13.874 15.0454 14.6519 15.5156 15.5781" stroke="white" stroke-linecap="round" stroke-linejoin="round"/>
  </svg>
  