<svg width="269" height="77" viewBox="0 0 269 77" fill="none" xmlns="http://www.w3.org/2000/svg">
  <g filter="url(#filter0_dd_1_7453)">
  <path d="M113.261 16C113.972 16.1349 114.688 16.2417 115.392 16.4082C120.998 17.7326 124.959 22.2464 125.59 28.0119C126.206 33.6401 123.579 38.8132 118.709 41.4631C116.061 42.9036 113.183 43.2825 110.214 43.0737C107.39 42.8754 104.785 42.0367 102.568 40.2255C98.7841 37.1334 97.1285 33.1158 97.5471 28.2758C97.9692 23.3995 100.451 19.8347 104.724 17.5015C106.19 16.7003 107.794 16.2933 109.454 16.115C109.559 16.1032 109.695 16.1549 109.747 15.9988C110.917 16 112.09 16 113.261 16ZM111.539 37.0865C113.239 37.124 114.791 36.6853 116.063 35.5322C118.513 33.3105 119.203 30.4858 118.385 27.3996C116.752 21.2482 110.031 20.7438 106.84 23.789C104.962 25.5814 104.277 27.8219 104.475 30.3591C104.746 33.8219 107.353 37.1944 111.539 37.0853V37.0865Z" fill="white"/>
  </g>
  <g filter="url(#filter1_dd_1_7453)">
  <path d="M16 29.9157C16.2744 29.4512 16.7516 29.416 17.2112 29.3515C18.0027 29.2401 18.7964 29.1497 19.5855 29.0254C19.9021 28.9761 20.1577 29.0665 20.411 29.2283C25.5302 32.4988 30.6505 35.768 35.7721 39.0349C36.0336 39.2015 36.1848 39.4208 36.2798 39.7153C38.1183 45.4667 39.9638 51.2157 41.8129 56.9624C41.9078 57.258 41.9055 57.522 41.7824 57.8082C41.4224 58.6457 41.0718 59.488 40.7365 60.3361C40.577 60.7408 40.3167 61.0117 39.8759 60.9977C39.4245 60.9824 39.2181 60.6622 39.0879 60.2575C37.1486 54.1976 35.1999 48.14 33.2676 42.0778C33.1586 41.7352 32.9838 41.5147 32.6884 41.3259C27.4015 37.9569 22.1182 34.5809 16.8372 31.2037C16.5499 31.0207 16.2791 30.8131 16 30.6172C16 30.3838 16 30.1492 16 29.9157Z" fill="white"/>
  </g>
  <g filter="url(#filter2_dd_1_7453)">
  <path d="M64.1633 19.6247C64.2078 20.0212 64.0589 20.4247 63.8948 20.8212C59.0159 32.6078 54.1348 44.3933 49.2536 56.1788C48.76 57.3695 47.8114 58.0158 46.6424 57.9654C45.4617 57.9149 44.594 57.2064 44.2012 55.963C42.3827 50.2175 40.5536 44.4755 38.7584 38.7229C38.4735 37.8103 37.9611 37.1698 37.1591 36.6665C32.0786 33.47 27.0146 30.2454 21.9387 27.0406C21.1895 26.5679 20.6713 25.9708 20.5399 25.0676C20.3336 23.647 21.2927 22.2863 22.7103 22.0951C26.8832 21.532 31.0597 20.9924 35.2339 20.4399C39.5241 19.8722 43.8131 19.2962 48.1034 18.7285C52.0454 18.2065 55.9885 17.6892 59.9317 17.1695C60.3761 17.1109 60.8204 17.0499 61.266 17.0006C62.8219 16.8293 64.1586 18.0211 64.1633 19.6235V19.6247ZM53.7443 26.4447C53.7502 25.8864 53.3937 25.4863 52.9201 25.4629C52.6691 25.4512 52.4135 25.4805 52.1626 25.5133C47.9123 26.0776 43.6642 26.6523 39.4127 27.206C38.905 27.2717 38.4911 27.4007 38.3586 27.9474C38.2214 28.5104 38.5708 28.8025 38.9929 29.0665C40.6919 30.1339 42.3815 31.2166 44.0852 32.2782C44.4709 32.5187 44.7089 32.8225 44.8438 33.2601C45.4488 35.2284 46.0843 37.1886 46.6964 39.1557C46.8335 39.5956 47.0891 39.8748 47.5535 39.903C48.026 39.9311 48.3168 39.6707 48.4774 39.2449C48.5044 39.1722 48.5419 39.1029 48.5712 39.0314C50.2373 35.0091 51.9035 30.9855 53.5673 26.962C53.6482 26.7661 53.7056 26.5608 53.7443 26.4435V26.4447Z" fill="#F7B519"/>
  </g>
  <g filter="url(#filter3_dd_1_7453)">
  <path d="M135.579 30.9902C136.824 26.9738 138.046 23.0277 139.272 19.0827C139.688 17.7443 140.315 17.2868 141.703 17.2856C142.132 17.2856 142.562 17.2856 142.991 17.2856C144.276 17.2868 144.981 17.8065 145.354 19.0311C146.066 21.3713 146.774 23.7115 147.489 26.0506C147.976 27.6412 148.471 29.2295 149.07 30.826C149.396 29.7128 149.727 28.6019 150.046 27.4875C150.916 24.4459 151.778 21.4018 152.649 18.3601C153.067 16.8997 153.747 16.3812 155.273 16.393C156.306 16.4 157.344 16.3073 158.372 16.454C159.374 16.5971 159.908 17.2915 159.688 18.2675C159.281 20.0669 158.632 21.7983 158.08 23.5567C156.275 29.3151 154.453 35.0689 152.638 40.8238C152.207 42.1869 151.534 42.6877 150.117 42.6924C149.57 42.6936 149.023 42.696 148.476 42.6924C147.174 42.6842 146.458 42.1634 146.077 40.9024C144.898 37.0009 143.732 33.0958 142.552 29.1955C142.481 28.9644 142.492 28.6864 142.247 28.5022C141.019 32.5445 139.79 36.5715 138.576 40.6033C138.073 42.2713 137.523 42.6936 135.766 42.6936C135.376 42.6936 134.985 42.6936 134.595 42.6936C133.046 42.6936 132.39 42.2232 131.931 40.771C130.755 37.0525 129.583 33.3316 128.41 29.6119C127.283 26.04 126.159 22.4681 125.033 18.8951C124.992 18.766 124.952 18.6358 124.919 18.5044C124.63 17.3314 125.104 16.583 126.308 16.4458C127.491 16.312 128.684 16.3566 129.872 16.427C130.914 16.4892 131.528 17.0851 131.814 18.0751C133.003 22.196 134.205 26.3133 135.402 30.4307C135.45 30.5973 135.507 30.7603 135.581 30.9914L135.579 30.9902Z" fill="white"/>
  </g>
  <g filter="url(#filter4_dd_1_7453)">
  <path d="M182.201 29.5052C182.201 25.8817 182.201 22.257 182.201 18.6335C182.201 18.142 182.254 17.6634 182.512 17.2282C182.912 16.5525 183.58 16.3918 184.275 16.3977C188.1 16.4258 191.927 16.2663 195.749 16.4763C199.722 16.6933 202.915 19.6528 203.493 23.5813C203.86 26.0717 203.595 28.4318 202.038 30.5175C201.411 31.3574 200.627 32.0249 199.686 32.4906C199.345 32.6595 199.265 32.7885 199.468 33.1697C200.72 35.517 201.928 37.8877 203.167 40.2408C203.47 40.8156 203.576 41.3786 203.236 41.9558C202.949 42.4438 202.508 42.6971 201.929 42.696C200.543 42.6924 199.157 42.7018 197.77 42.6924C196.898 42.6854 196.325 42.2197 195.936 41.4666C194.66 38.9997 193.365 36.5434 192.101 34.0706C191.903 33.6835 191.676 33.5334 191.246 33.5651C190.722 33.6038 190.191 33.5967 189.666 33.5662C189.284 33.5439 189.171 33.6589 189.174 34.0495C189.194 36.1927 189.185 38.3358 189.184 40.4789C189.184 42.0262 188.525 42.6901 186.989 42.6948C186.11 42.6971 185.231 42.6971 184.353 42.6948C182.875 42.6901 182.207 42.0367 182.204 40.5552C182.195 36.873 182.201 33.1909 182.201 29.5075V29.5052ZM189.184 25.5063C189.184 26.4013 189.212 27.2987 189.172 28.1925C189.151 28.6524 189.311 28.7368 189.732 28.7275C190.941 28.6993 192.151 28.7181 193.36 28.7181C195.326 28.7181 196.468 27.6623 196.638 25.6893C196.791 23.9192 195.505 22.3778 193.819 22.3497C192.415 22.3262 191.009 22.3543 189.606 22.3379C189.276 22.3344 189.168 22.4283 189.177 22.7626C189.198 23.6775 189.184 24.5925 189.184 25.5075V25.5063Z" fill="white"/>
  </g>
  <g filter="url(#filter5_dd_1_7453)">
  <path d="M231.146 29.5134C231.146 25.8899 231.146 22.2664 231.146 18.644C231.146 17.0581 231.779 16.407 233.379 16.4012C236.756 16.3894 240.133 16.3719 243.51 16.4059C246.459 16.4352 249.09 17.3079 250.844 19.8218C252.911 22.7848 253.125 26.0037 251.699 29.2999C251.093 30.697 250.028 31.741 248.675 32.446C248.227 32.6794 248.223 32.8683 248.441 33.2788C249.649 35.544 250.825 37.8267 252.012 40.1035C252.2 40.466 252.39 40.8214 252.362 41.2578C252.311 42.0391 251.721 42.6666 250.934 42.6772C249.49 42.696 248.045 42.7018 246.6 42.6748C245.75 42.6596 245.22 42.1481 244.844 41.4209C243.575 38.9669 242.282 36.5258 241.026 34.0659C240.828 33.6777 240.612 33.5205 240.181 33.5533C239.677 33.592 239.164 33.5908 238.66 33.5533C238.206 33.5193 238.062 33.6542 238.069 34.1281C238.096 36.2513 238.082 38.3745 238.081 40.4977C238.08 42.0578 237.449 42.6807 235.875 42.683C235.056 42.683 234.236 42.683 233.416 42.683C231.755 42.683 231.147 42.0825 231.147 40.4414C231.147 36.7991 231.147 33.1557 231.147 29.5134H231.146ZM238.081 25.4875C238.081 26.3825 238.103 27.2787 238.072 28.1738C238.056 28.5984 238.161 28.7486 238.616 28.7368C239.883 28.7052 241.152 28.7274 242.419 28.7251C244.05 28.7227 245.145 27.8465 245.504 26.257C245.947 24.2957 244.639 22.3801 242.797 22.3403C241.373 22.3098 239.949 22.3461 238.525 22.3262C238.149 22.3203 238.067 22.4587 238.075 22.8013C238.095 23.6963 238.082 24.5925 238.082 25.4875H238.081Z" fill="#F7B519"/>
  </g>
  <g filter="url(#filter6_dd_1_7453)">
  <path d="M215.405 27.7573C215.507 27.5978 215.611 27.4406 215.708 27.2787C217.597 24.1432 219.494 21.0135 221.367 17.8686C221.9 16.9724 222.639 16.4481 223.679 16.4211C225.044 16.3859 226.412 16.3331 227.775 16.4551C228.835 16.5501 229.193 17.1472 228.707 18.1079C228.225 19.0604 227.617 19.9484 227.091 20.8798C225.387 23.8969 223.704 26.9245 221.992 29.9368C221.798 30.2782 221.821 30.5034 222.025 30.8213C224.121 34.08 226.201 37.3504 228.287 40.6161C228.518 40.9786 228.733 41.3469 228.844 41.7669C229.02 42.4297 228.803 42.8379 228.149 43.0044C227.868 43.076 227.572 43.1065 227.282 43.11C226.169 43.1218 225.057 43.1112 223.944 43.1159C222.818 43.1206 221.976 42.6772 221.387 41.6824C219.578 38.6361 217.737 35.6085 215.906 32.5738C215.748 32.3122 215.586 32.0518 215.392 31.7327C215.232 31.9861 215.284 32.1984 215.283 32.3955C215.279 35.2401 215.281 38.0847 215.279 40.9293C215.279 42.5059 214.664 43.1135 213.075 43.1147C212.157 43.1147 211.24 43.1229 210.322 43.1124C209.095 43.0995 208.484 42.5517 208.347 41.3469C208.319 41.0959 208.314 40.8414 208.314 40.5892C208.313 33.3597 208.313 26.1315 208.314 18.9021C208.314 18.6886 208.318 18.4727 208.339 18.2604C208.462 17.0182 208.93 16.502 210.179 16.4305C211.287 16.3671 212.405 16.3695 213.512 16.4422C214.762 16.5243 215.277 17.1531 215.279 18.4446C215.285 21.3279 215.28 24.2124 215.28 27.0957V27.7303C215.322 27.7386 215.364 27.7468 215.405 27.755V27.7573Z" fill="#F7B519"/>
  </g>
  <g filter="url(#filter7_dd_1_7453)">
  <path d="M75.2143 29.5345C75.2143 25.9497 75.2119 22.3637 75.2178 18.7789C75.2178 18.4493 75.2471 18.1173 75.3022 17.7924C75.4218 17.0921 75.9131 16.6018 76.6107 16.4751C76.878 16.4258 77.1524 16.393 77.4233 16.393C80.8013 16.3871 84.1793 16.3765 87.5573 16.393C90.8708 16.4094 93.5359 17.6528 95.2935 20.5619C97.152 23.6376 97.1801 29.1192 93.849 32.0741C92.1371 33.592 90.104 34.1703 87.8856 34.2243C86.1491 34.2665 84.4103 34.2442 82.6726 34.2243C82.2951 34.2196 82.1837 34.3146 82.1872 34.7029C82.2071 36.6712 82.1989 38.6384 82.1954 40.6068C82.193 42.0426 81.5646 42.6807 80.1353 42.6924C79.2172 42.7006 78.3003 42.696 77.3822 42.6924C75.8298 42.6877 75.2178 42.0684 75.2154 40.466C75.2096 36.8226 75.2131 33.1779 75.2131 29.5345H75.2143ZM82.1966 25.4723C82.1966 26.3884 82.22 27.3045 82.186 28.2195C82.1708 28.6453 82.3173 28.7357 82.7148 28.7263C83.8862 28.7005 85.0575 28.7169 86.2288 28.7169C88.208 28.7169 89.3677 27.7397 89.5342 25.7866C89.6983 23.8441 88.3581 22.2757 86.522 22.3356C85.2545 22.3766 83.9835 22.359 82.7148 22.3344C82.3173 22.3262 82.1696 22.4165 82.186 22.8411C82.22 23.7162 82.1966 24.5948 82.1966 25.4711V25.4723Z" fill="white"/>
  </g>
  <g filter="url(#filter8_dd_1_7453)">
  <path d="M161.98 29.5662C161.98 25.9039 161.98 22.2406 161.98 18.5783C161.98 17.0041 162.584 16.393 164.179 16.3906C168.805 16.3848 173.432 16.3848 178.059 16.3906C179.649 16.393 180.277 17.0393 180.278 18.6393C180.278 19.2435 180.294 19.8476 180.275 20.4505C180.239 21.6212 179.636 22.2933 178.474 22.3086C175.507 22.3485 172.54 22.3508 169.573 22.3309C169.033 22.3274 168.891 22.4705 168.91 22.9995C168.952 24.1479 168.951 25.2987 168.91 26.4471C168.892 26.9315 169.062 27.0054 169.495 27.0019C171.896 26.982 174.297 26.9914 176.699 26.9925C178.149 26.9937 178.778 27.6049 178.794 29.0348C178.8 29.5603 178.809 30.0882 178.774 30.6113C178.707 31.6002 178.195 32.1351 177.22 32.2747C176.347 32.4002 175.466 32.324 174.589 32.331C172.852 32.3439 171.114 32.3439 169.376 32.3275C169.034 32.324 168.904 32.3897 168.912 32.7686C168.939 33.9369 168.95 35.1076 168.909 36.2748C168.892 36.7545 169.081 36.7979 169.481 36.7956C172.351 36.7803 175.22 36.7874 178.091 36.7874C179.67 36.7874 180.276 37.3962 180.277 38.981C180.277 39.5651 180.285 40.1505 180.276 40.7346C180.255 41.9992 179.625 42.6819 178.378 42.6866C173.536 42.703 168.694 42.7018 163.853 42.6877C162.604 42.6842 161.984 42.0168 161.981 40.7311C161.974 37.0103 161.979 33.2882 161.979 29.5673L161.98 29.5662Z" fill="white"/>
  </g>
  <g filter="url(#filter9_dd_1_7453)">
  <path d="M217.033 59.7437C217.033 60.0334 216.941 60.1988 216.626 60.2105C216.253 60.2258 216.093 60.0463 216.046 59.7061C215.926 58.8393 215.804 57.9724 215.68 57.1055C215.531 56.0662 215.382 55.0269 215.227 53.9876C215.204 53.8269 215.251 53.5723 215.014 53.5759C214.788 53.5794 214.824 53.8457 214.791 53.9981C214.416 55.7272 214.056 57.4598 213.689 59.19C213.525 59.9654 213.264 60.2 212.572 60.2047C211.868 60.2094 211.603 59.9912 211.436 59.2193C211.062 57.4903 210.702 55.7589 210.324 54.031C210.288 53.8633 210.347 53.5606 210.077 53.5829C209.843 53.6017 209.881 53.8938 209.856 54.0697C209.601 55.841 209.358 57.6134 209.11 59.3859C209.089 59.5396 209.067 59.6944 209.037 59.8469C208.964 60.207 208.693 60.2293 208.405 60.2012C208.082 60.1683 208.046 59.929 208.081 59.685C208.384 57.5865 208.68 55.4879 209.01 53.394C209.107 52.7758 209.481 52.506 210.061 52.5025C210.672 52.499 211.042 52.8063 211.203 53.5371C211.499 54.865 211.764 56.1999 212.041 57.5325C212.127 57.9513 212.199 58.3736 212.301 58.7888C212.343 58.9613 212.313 59.2534 212.561 59.244C212.803 59.2346 212.768 58.9448 212.806 58.7689C213.145 57.1923 213.472 55.6122 213.805 54.0333C213.857 53.787 213.914 53.5395 213.989 53.299C214.163 52.7442 214.543 52.4697 215.13 52.5037C215.682 52.5354 216.021 52.8451 216.129 53.4679C216.251 54.1765 216.344 54.8908 216.445 55.6029C216.643 56.9894 216.837 58.3759 217.031 59.7425L217.033 59.7437Z" fill="#F7B519"/>
  </g>
  <g filter="url(#filter10_dd_1_7453)">
  <path d="M235.788 56.1694C235.788 57.0656 235.793 57.9618 235.785 58.858C235.78 59.4082 235.799 59.9888 235.098 60.1754C234.363 60.3713 233.792 60.0944 233.441 59.3402C232.819 57.9994 232.221 56.648 231.613 55.3002C231.414 54.8568 231.223 54.4099 231.014 53.9712C230.936 53.8058 230.885 53.5372 230.646 53.5864C230.406 53.6369 230.468 53.8973 230.468 54.0826C230.464 55.8363 230.465 57.59 230.465 59.3437C230.465 59.4997 230.465 59.6557 230.462 59.8117C230.456 60.112 230.284 60.2082 230.004 60.2094C229.728 60.2106 229.536 60.1167 229.519 59.827C229.499 59.4774 229.508 59.1255 229.508 58.7748C229.508 57.1571 229.502 55.5407 229.51 53.9231C229.515 53.0797 229.707 52.7688 230.252 52.6445C230.949 52.4861 231.517 52.736 231.835 53.4222C232.636 55.1524 233.406 56.8956 234.189 58.6328C234.221 58.7032 234.249 58.7771 234.282 58.8463C234.364 59.0187 234.425 59.2745 234.651 59.2346C234.901 59.1912 234.825 58.9202 234.825 58.7407C234.831 57.007 234.828 55.2721 234.828 53.5383C234.828 53.4023 234.831 53.265 234.828 53.1289C234.825 52.8063 234.944 52.6116 235.307 52.6151C235.662 52.6187 235.79 52.8005 235.789 53.1289C235.785 53.9864 235.789 54.8439 235.789 55.7014C235.789 55.8574 235.789 56.0134 235.789 56.1694H235.788Z" fill="#F7B519"/>
  </g>
  <g filter="url(#filter11_dd_1_7453)">
  <path d="M173.158 56.8615C173.158 56.004 173.145 55.1465 173.161 54.2891C173.185 53.0902 173.657 52.6257 174.847 52.621C175.646 52.6175 176.448 52.5647 177.231 52.797C178.238 53.0961 178.655 53.6275 178.67 54.655C178.687 55.8457 178.326 56.4428 177.293 56.7337C176.808 56.8709 176.822 57.0093 177.074 57.3695C177.543 58.0393 177.977 58.7337 178.409 59.4281C178.541 59.6393 178.863 59.9208 178.538 60.1249C178.234 60.3161 177.811 60.3126 177.559 59.9231C177.264 59.4657 176.984 58.9976 176.698 58.5331C176.555 58.3008 176.369 58.0838 176.279 57.8328C175.981 57.0082 175.38 56.8439 174.582 56.9143C174.202 56.9472 174.134 57.0703 174.144 57.4023C174.163 58.1225 174.153 58.844 174.147 59.5654C174.145 59.8821 174.156 60.2047 173.682 60.2105C173.198 60.2164 173.158 59.9102 173.158 59.5513C173.159 58.6551 173.158 57.7589 173.158 56.8627V56.8615ZM175.488 56.0111C175.908 55.9923 176.413 56.0486 176.91 55.8938C177.478 55.7166 177.721 55.3319 177.722 54.7641C177.724 54.1858 177.452 53.8058 176.885 53.658C176.159 53.4679 175.418 53.5113 174.681 53.5524C174.37 53.57 174.191 53.7729 174.168 54.0873C174.153 54.2996 174.15 54.5131 174.15 54.7266C174.148 55.5837 174.594 56.0122 175.488 56.0122V56.0111Z" fill="#F7B519"/>
  </g>
  <g filter="url(#filter12_dd_1_7453)">
  <path d="M203.345 56.8768C203.913 57.753 204.459 58.5742 204.977 59.4129C205.111 59.6299 205.48 59.9243 205.097 60.1437C204.791 60.3185 204.363 60.2985 204.119 59.9032C203.597 59.0598 203.081 58.2129 202.563 57.3671C202.347 57.014 201.135 56.7313 200.797 56.9577C200.636 57.0668 200.704 57.2416 200.702 57.3882C200.695 58.1472 200.694 58.9061 200.702 59.6651C200.705 59.9724 200.657 60.2012 200.272 60.2106C199.887 60.2199 199.756 60.0358 199.757 59.6768C199.763 57.7894 199.744 55.902 199.768 54.0146C199.778 53.1864 200.176 52.7371 201.001 52.6562C201.911 52.5671 202.834 52.5483 203.735 52.7712C204.793 53.0328 205.261 53.6498 205.269 54.7442C205.279 55.8668 204.809 56.5002 203.745 56.7959C203.638 56.8252 203.528 56.8404 203.345 56.878V56.8768ZM201.991 56.0123C202.496 55.997 203.004 56.051 203.501 55.8903C204.064 55.7084 204.317 55.3213 204.309 54.7501C204.302 54.1706 204.012 53.8081 203.45 53.6498C202.934 53.5043 202.405 53.5266 201.88 53.5254C200.835 53.5219 200.701 53.6615 200.7 54.6961C200.698 55.5728 201.129 56.0115 201.991 56.0123Z" fill="#F7B519"/>
  </g>
  <g filter="url(#filter13_dd_1_7453)">
  <path d="M133.509 56.3782C133.509 55.5618 133.469 54.7419 133.52 53.9289C133.573 53.0808 133.968 52.7008 134.808 52.6363C135.527 52.5811 136.254 52.5741 136.963 52.7371C138.168 53.014 138.902 53.7682 139.154 54.9729C139.352 55.9172 139.357 56.8674 139.161 57.8129C138.89 59.1243 138.15 59.8375 136.834 60.1097C136.137 60.2539 135.433 60.234 134.736 60.1812C133.955 60.1226 133.568 59.7343 133.523 58.9448C133.475 58.092 133.513 57.2334 133.513 56.3782C133.512 56.3782 133.51 56.3782 133.509 56.3782ZM135.671 59.2803C137.438 59.285 138.183 58.6387 138.321 56.9659C138.369 56.3829 138.353 55.7999 138.222 55.224C138.007 54.2738 137.394 53.6791 136.426 53.5653C135.984 53.5125 135.532 53.5371 135.084 53.5418C134.684 53.5465 134.466 53.7671 134.464 54.1624C134.457 55.6615 134.454 57.1595 134.464 58.6586C134.466 59.0457 134.678 59.2733 135.085 59.2792C135.28 59.2815 135.476 59.2792 135.67 59.2792L135.671 59.2803Z" fill="#F7B519"/>
  </g>
  <g filter="url(#filter14_dd_1_7453)">
  <path d="M189.785 56.2515C189.773 55.9231 189.833 55.4586 189.947 55.0046C190.366 53.3424 191.586 52.4333 193.284 52.5025C194.886 52.5682 196.058 53.6298 196.328 55.2979C196.494 56.3278 196.475 57.3577 196.094 58.3489C195.605 59.617 194.495 60.3337 193.071 60.322C191.644 60.3102 190.57 59.5771 190.094 58.2856C189.868 57.6756 189.785 57.041 189.785 56.2515ZM195.459 56.3911C195.437 56.099 195.433 55.7859 195.387 55.4797C195.201 54.2304 194.401 53.4761 193.226 53.4234C192.034 53.3706 191.168 54.004 190.881 55.1794C190.676 56.0228 190.681 56.8768 190.903 57.7178C191.189 58.8041 191.951 59.3882 193.062 59.4C194.218 59.4117 194.976 58.8404 195.298 57.7366C195.426 57.3002 195.418 56.8533 195.459 56.39V56.3911Z" fill="#F7B519"/>
  </g>
  <g filter="url(#filter15_dd_1_7453)">
  <path d="M119.003 56.4017C118.999 56.0123 119.04 55.6275 119.113 55.2439C119.45 53.4726 120.654 52.4685 122.416 52.5037C124.088 52.5365 125.308 53.6509 125.556 55.3788C125.69 56.3126 125.679 57.2392 125.38 58.1448C124.915 59.5525 123.791 60.3361 122.279 60.3243C120.78 60.3126 119.662 59.4868 119.234 58.0698C119.07 57.5278 118.989 56.9706 119.004 56.4029L119.003 56.4017ZM124.66 56.4604C124.645 55.9735 124.633 55.5078 124.508 55.0527C124.226 54.0404 123.431 53.4363 122.355 53.4234C121.256 53.4105 120.469 53.963 120.158 54.9835C119.903 55.8187 119.903 56.6692 120.064 57.5219C120.28 58.6657 121.065 59.3566 122.191 59.3976C123.429 59.4422 124.221 58.844 124.536 57.6533C124.643 57.251 124.625 56.8439 124.66 56.4592V56.4604Z" fill="#F7B519"/>
  </g>
  <g filter="url(#filter16_dd_1_7453)">
  <path d="M113.064 52.5025C113.84 52.4978 114.348 52.8192 114.636 53.658C115.149 55.1465 115.6 56.6562 116.079 58.1566C116.226 58.6199 116.385 59.0797 116.519 59.5466C116.586 59.7777 116.724 60.0792 116.364 60.1824C116.046 60.2739 115.733 60.2234 115.612 59.8328C115.45 59.3132 115.277 58.7959 115.132 58.2715C115.053 57.9829 114.913 57.8727 114.6 57.8785C113.585 57.8997 112.569 57.8985 111.555 57.8785C111.24 57.8727 111.107 57.9935 111.029 58.2809C110.89 58.7865 110.711 59.2815 110.564 59.7847C110.442 60.2047 110.135 60.2844 109.787 60.1777C109.429 60.0663 109.578 59.7601 109.65 59.5337C110.224 57.6967 110.795 55.8586 111.396 54.0298C111.764 52.9072 112.233 52.5072 113.065 52.5025H113.064ZM113.109 56.9765C113.517 56.9765 113.925 56.9683 114.333 56.9788C114.635 56.987 114.697 56.885 114.599 56.5952C114.32 55.7706 114.078 54.9319 113.798 54.1072C113.68 53.7612 113.538 53.3905 113.059 53.4093C112.624 53.4257 112.474 53.7647 112.363 54.0943C112.085 54.9202 111.848 55.7589 111.569 56.5835C111.452 56.9296 111.586 56.987 111.885 56.9788C112.293 56.9671 112.701 56.9753 113.109 56.9753V56.9765Z" fill="#F7B519"/>
  </g>
  <g filter="url(#filter17_dd_1_7453)">
  <path d="M226.045 60.2047C225.716 60.2188 225.577 60.037 225.498 59.7648C225.355 59.2803 225.176 58.8053 225.052 58.3161C224.964 57.9712 224.786 57.8692 224.436 57.8774C223.481 57.902 222.523 57.8997 221.567 57.8786C221.204 57.8704 220.997 57.9454 220.913 58.3443C220.813 58.817 220.614 59.2686 220.486 59.7367C220.376 60.1414 220.111 60.2833 219.741 60.1894C219.282 60.0733 219.491 59.7284 219.57 59.4762C220.143 57.6381 220.718 55.8011 221.318 53.9724C221.665 52.9131 222.151 52.5072 222.967 52.5025C223.831 52.4978 224.331 52.9201 224.669 53.9806C225.2 55.6475 225.717 57.319 226.24 58.9883C226.315 59.2299 226.405 59.468 226.46 59.7132C226.539 60.0592 226.398 60.2399 226.046 60.2035L226.045 60.2047ZM223 56.9765C223.428 56.9765 223.856 56.973 224.284 56.9777C224.507 56.98 224.608 56.9272 224.522 56.6715C224.221 55.7718 223.946 54.8627 223.64 53.9641C223.538 53.665 223.359 53.4046 222.977 53.407C222.597 53.4105 222.422 53.6638 222.319 53.97C222.023 54.851 221.748 55.7401 221.457 56.6234C221.374 56.878 221.442 56.9847 221.715 56.9788C222.143 56.9695 222.571 56.9765 222.999 56.9765H223Z" fill="#F7B519"/>
  </g>
  <g filter="url(#filter18_dd_1_7453)">
  <path d="M247.686 56.4041C247.686 55.6639 247.669 54.9225 247.691 54.1835C247.723 53.0973 248.207 52.6327 249.298 52.6222C250.255 52.6128 251.212 52.6281 252.167 52.6163C252.506 52.6116 252.762 52.6867 252.762 53.0738C252.762 53.4633 252.503 53.5313 252.165 53.5278C251.267 53.5184 250.37 53.5383 249.472 53.5336C248.907 53.5313 248.678 53.7917 248.67 54.3571C248.648 55.9255 248.634 55.9255 250.194 55.9255C250.663 55.9255 251.131 55.9372 251.6 55.9219C251.951 55.9102 252.184 56.0216 252.173 56.4029C252.164 56.7501 251.94 56.8439 251.618 56.8392C250.818 56.8263 250.016 56.8627 249.217 56.8252C248.761 56.8041 248.634 56.9683 248.672 57.3917C248.704 57.739 248.675 58.0921 248.679 58.4428C248.69 59.1243 248.832 59.2768 249.505 59.2839C250.442 59.2944 251.378 59.2921 252.315 59.2839C252.678 59.2803 253.012 59.3132 253.001 59.7789C252.991 60.2258 252.652 60.2106 252.325 60.2094C251.329 60.2035 250.334 60.2129 249.338 60.2059C248.181 60.1977 247.71 59.7308 247.69 58.5671C247.678 57.8469 247.687 57.1255 247.687 56.4052L247.686 56.4041Z" fill="#F7B519"/>
  </g>
  <g filter="url(#filter19_dd_1_7453)">
  <path d="M155.766 56.9342C155.766 55.943 155.72 54.9506 155.779 53.963C155.833 53.055 156.259 52.6691 157.154 52.6304C157.892 52.5987 158.633 52.5858 159.369 52.7148C160.5 52.9131 161.079 53.4961 161.229 54.6328C161.474 56.4944 160.659 57.4938 158.791 57.6181C158.578 57.6322 158.362 57.6181 158.148 57.6346C157.688 57.6686 157.086 57.4281 156.804 57.7343C156.528 58.0334 156.744 58.6246 156.721 59.0868C156.712 59.2803 156.721 59.4762 156.719 59.6698C156.713 59.9736 156.629 60.1953 156.258 60.2082C155.87 60.2211 155.732 60.0193 155.732 59.6745C155.73 58.7607 155.732 57.8469 155.732 56.9331H155.768L155.766 56.9342ZM156.719 55.2674C156.719 55.6369 156.721 56.0052 156.718 56.3747C156.716 56.5659 156.732 56.7219 156.99 56.7137C157.689 56.6903 158.395 56.7841 159.086 56.6504C159.955 56.4826 160.282 56.0498 160.287 55.1336C160.292 54.2175 159.969 53.8187 159.097 53.6099C158.73 53.5219 158.362 53.5395 157.994 53.5278C156.819 53.4902 156.718 53.5934 156.717 54.743C156.717 54.9178 156.717 55.0926 156.717 55.2674H156.719Z" fill="#F7B519"/>
  </g>
  <g filter="url(#filter20_dd_1_7453)">
  <path d="M164.59 56.3454C164.59 55.6052 164.571 54.865 164.595 54.126C164.628 53.1242 165.087 52.6515 166.077 52.6269C167.091 52.6011 168.105 52.6245 169.121 52.6187C169.441 52.6163 169.648 52.7078 169.646 53.0761C169.645 53.448 169.433 53.5278 169.114 53.5254C168.197 53.5219 167.28 53.5383 166.363 53.5324C165.794 53.5289 165.563 53.8128 165.541 54.3571C165.477 55.9254 165.47 55.9254 167.058 55.9254C167.546 55.9254 168.034 55.9278 168.522 55.9254C168.831 55.9243 169.057 56.0017 169.06 56.3759C169.062 56.743 168.856 56.8381 168.536 56.8357C167.716 56.8299 166.897 56.8521 166.078 56.8275C165.689 56.8158 165.498 56.9038 165.539 57.3366C165.573 57.7038 165.536 58.0756 165.548 58.4451C165.568 59.0891 165.754 59.278 166.397 59.2838C167.334 59.2921 168.27 59.2885 169.206 59.285C169.56 59.2838 169.891 59.2932 169.881 59.7847C169.87 60.2692 169.523 60.207 169.213 60.207C168.218 60.207 167.224 60.2129 166.228 60.207C165.069 60.1988 164.608 59.739 164.589 58.5671C164.577 57.8269 164.587 57.0879 164.587 56.3477H164.591L164.59 56.3454Z" fill="#F7B519"/>
  </g>
  <g filter="url(#filter21_dd_1_7453)">
  <path d="M86.1913 56.3806C86.1913 55.6416 86.1855 54.9014 86.1925 54.1624C86.2019 53.1559 86.6404 52.6609 87.6253 52.628C88.6583 52.594 89.6924 52.6234 90.7254 52.6175C91.0572 52.6151 91.2402 52.736 91.2343 53.0937C91.2284 53.4761 90.9904 53.5242 90.6844 53.5242C89.7874 53.5219 88.8904 53.5172 87.9935 53.5371C87.3181 53.5524 87.1481 53.7459 87.1317 54.4263C87.1082 55.425 87.5921 55.9243 88.5832 55.9243C89.0511 55.9243 89.5189 55.9231 89.9879 55.9243C90.3057 55.9254 90.6387 55.8996 90.648 56.37C90.6562 56.8369 90.3397 56.8346 90.0114 56.8334C89.1918 56.831 88.3734 56.8475 87.5538 56.8263C87.2208 56.8181 87.1059 56.9225 87.1246 57.2557C87.1504 57.6827 87.1246 58.112 87.134 58.5401C87.1457 59.0316 87.3896 59.2897 87.9008 59.2862C88.8764 59.2803 89.8507 59.2862 90.8263 59.2862C91.1534 59.2862 91.4665 59.2838 91.4688 59.7495C91.4711 60.2176 91.1628 60.2105 90.8321 60.2094C89.7991 60.2047 88.765 60.2188 87.732 60.2047C86.6674 60.1906 86.2019 59.7144 86.1925 58.6598C86.1866 57.9008 86.1913 57.1419 86.1913 56.3829V56.3806Z" fill="#F7B519"/>
  </g>
  <g filter="url(#filter22_dd_1_7453)">
  <path d="M142.658 56.4041C142.658 55.6252 142.64 54.8451 142.663 54.0674C142.692 53.1231 143.129 52.6621 144.072 52.6292C145.125 52.5929 146.179 52.6222 147.233 52.6187C147.549 52.6175 147.708 52.7665 147.708 53.0762C147.708 53.3917 147.536 53.5254 147.226 53.5243C146.31 53.5219 145.391 53.5149 144.475 53.536C143.785 53.5512 143.622 53.7366 143.612 54.4193C143.595 55.4234 144.097 55.9255 145.116 55.9255C145.604 55.9255 146.091 55.9301 146.579 55.9243C146.898 55.9208 147.115 56.0228 147.122 56.3794C147.129 56.7442 146.911 56.8369 146.591 56.8357C145.751 56.8299 144.912 56.8486 144.074 56.8275C143.729 56.8181 143.573 56.8967 143.603 57.2756C143.636 57.6815 143.619 58.0932 143.609 58.5026C143.596 59.0399 143.853 59.2909 144.388 59.2885C145.345 59.2839 146.3 59.2885 147.257 59.2874C147.61 59.2874 147.953 59.2979 147.943 59.7812C147.932 60.2469 147.588 60.2094 147.27 60.2094C146.274 60.2082 145.279 60.2141 144.283 60.207C143.117 60.1988 142.674 59.7496 142.652 58.5683C142.652 58.5296 142.652 58.4909 142.652 58.451C142.652 57.7695 142.652 57.0879 142.652 56.4064C142.654 56.4064 142.656 56.4064 142.657 56.4064L142.658 56.4041Z" fill="#F7B519"/>
  </g>
  <g filter="url(#filter23_dd_1_7453)">
  <path d="M82.6784 57.8117C82.6784 58.085 82.6784 58.3571 82.6784 58.6305C82.6761 59.705 82.3794 60.0639 81.3289 60.2481C80.589 60.3783 79.8456 60.3701 79.1222 60.1754C77.986 59.8692 77.2837 59.095 76.98 57.9853C76.6916 56.9343 76.6916 55.8609 76.9882 54.8099C77.3845 53.4081 78.4468 52.5999 79.9605 52.5084C80.6078 52.4697 81.2433 52.5835 81.8741 52.7195C82.2176 52.7934 82.4005 52.9917 82.3325 53.3401C82.2552 53.7401 81.955 53.638 81.6818 53.5864C81.1448 53.4844 80.6054 53.394 80.0543 53.4269C78.8725 53.4973 78.1326 54.1119 77.8629 55.2568C77.6718 56.0686 77.6835 56.8826 77.8852 57.6873C78.142 58.7126 78.8678 59.305 79.9324 59.3882C80.0884 59.4 80.2443 59.4047 80.4002 59.4035C81.6255 59.3918 81.7369 59.2803 81.7369 58.0686C81.7369 57.6205 81.7486 57.1712 81.7334 56.7243C81.7205 56.3665 81.8483 56.1577 82.2282 56.1659C82.5788 56.173 82.6948 56.3724 82.6808 56.7032C82.6644 57.0727 82.6773 57.4434 82.6773 57.814L82.6784 57.8117Z" fill="#F7B519"/>
  </g>
  <g filter="url(#filter24_dd_1_7453)">
  <path d="M96.4051 60.3243C95.8153 60.322 95.2419 60.2176 94.6733 60.0745C94.3579 59.9947 94.2043 59.7836 94.2723 59.468C94.3485 59.1114 94.6123 59.1853 94.875 59.2381C95.6816 59.4012 96.4942 59.4962 97.3091 59.2886C97.791 59.1654 98.1768 58.9237 98.2741 58.3924C98.3773 57.8281 98.0912 57.4375 97.6245 57.2029C97.0171 56.8967 96.3769 56.6574 95.7579 56.3736C95.181 56.1096 94.6545 55.7777 94.4142 55.1454C93.9862 54.0181 94.6158 52.9155 95.8575 52.6187C96.6935 52.4193 97.5201 52.5014 98.3468 52.7008C98.7044 52.7876 98.8533 52.9976 98.7794 53.3319C98.7032 53.6756 98.437 53.6146 98.1697 53.5677C97.4779 53.4445 96.785 53.3319 96.0826 53.5243C95.65 53.6427 95.3311 53.8726 95.2607 54.329C95.1939 54.7606 95.4272 55.0703 95.7684 55.3061C96.2233 55.6193 96.7545 55.7659 97.2575 55.9724C97.7828 56.1882 98.2928 56.424 98.7044 56.831C99.6107 57.7272 99.4196 59.2358 98.3163 59.8821C97.7253 60.2282 97.0758 60.3232 96.4039 60.3232L96.4051 60.3243Z" fill="#F7B519"/>
  </g>
  <g filter="url(#filter25_dd_1_7453)">
  <path d="M182.138 56.8709C182.138 55.8985 182.097 54.9237 182.15 53.9536C182.198 53.0785 182.619 52.6691 183.479 52.6351C184.551 52.5917 185.625 52.6234 186.698 52.6187C187.011 52.6175 187.18 52.7676 187.179 53.0738C187.179 53.3776 187.014 53.5266 186.697 53.5254C185.78 53.5207 184.863 53.5149 183.946 53.536C183.252 53.5512 183.095 53.7295 183.085 54.4158C183.071 55.423 183.572 55.9266 184.591 55.9266C185.137 55.9266 185.684 55.929 186.23 55.9266C186.556 55.9266 186.748 56.0486 186.738 56.4087C186.727 56.7454 186.53 56.8357 186.238 56.8357C185.341 56.8346 184.443 56.851 183.546 56.8287C183.192 56.8205 183.067 56.9202 183.078 57.285C183.103 58.0627 183.087 58.8428 183.085 59.6217C183.085 59.9361 183.047 60.2023 182.625 60.2141C182.186 60.2258 182.099 59.9701 182.095 59.6205C182.095 59.6006 182.095 59.5818 182.095 59.5619C182.095 58.6657 182.095 57.7706 182.095 56.8744C182.109 56.8744 182.124 56.8744 182.138 56.8744V56.8709Z" fill="#F7B519"/>
  </g>
  <g filter="url(#filter26_dd_1_7453)">
  <path d="M240.161 56.4521C240.161 56.5683 240.156 56.6856 240.161 56.8017C240.247 58.8017 241.36 59.6838 243.33 59.312C243.503 59.2791 243.675 59.2498 243.845 59.2099C244.087 59.1548 244.333 59.1067 244.394 59.4387C244.448 59.7272 244.396 59.9923 244.06 60.0897C242.248 60.6105 239.964 60.451 239.296 57.8281C239.041 56.8298 239.053 55.8246 239.343 54.8322C239.775 53.3494 240.845 52.5365 242.392 52.506C242.901 52.4955 243.397 52.6022 243.894 52.6984C244.305 52.7782 244.484 52.9999 244.387 53.3928C244.287 53.7964 243.976 53.6427 243.718 53.5923C243.317 53.5137 242.918 53.4327 242.505 53.4409C241.253 53.4644 240.553 54.0286 240.262 55.2357C240.164 55.638 240.152 56.0439 240.157 56.4521H240.161Z" fill="#F7B519"/>
  </g>
  <g filter="url(#filter27_dd_1_7453)">
  <path d="M105.294 56.8346C105.294 57.7495 105.29 58.6645 105.296 59.5795C105.299 59.9149 105.293 60.207 104.828 60.2117C104.376 60.2164 104.334 59.9443 104.334 59.5994C104.337 57.8082 104.302 56.017 104.354 54.2269C104.371 53.6017 104.168 53.4586 103.603 53.5137C103.14 53.5594 102.667 53.5149 102.2 53.5254C101.872 53.5325 101.661 53.414 101.665 53.0656C101.668 52.7125 101.891 52.6175 102.213 52.6175C103.949 52.6234 105.684 52.6234 107.421 52.6175C107.737 52.6175 107.963 52.7043 107.968 53.0644C107.973 53.4198 107.766 53.5301 107.44 53.5254C106.855 53.516 106.268 53.5383 105.684 53.5172C105.375 53.5067 105.283 53.6111 105.289 53.9149C105.307 54.8873 105.295 55.8609 105.295 56.8346H105.294Z" fill="#F7B519"/>
  </g>
  <g filter="url(#filter28_dd_1_7453)">
  <path d="M112.365 50.4814C112.705 50.4415 113 50.5975 113.285 50.7664C113.628 50.9682 113.954 51.0832 114.279 50.7301C114.486 50.5037 114.714 50.5964 114.896 50.7641C115.127 50.9764 114.921 51.1594 114.797 51.3131C114.408 51.7952 113.722 51.8879 113.047 51.5313C112.617 51.3049 112.23 51.0714 111.798 51.536C111.64 51.7049 111.433 51.5747 111.278 51.4445C111.088 51.2861 111.199 51.1148 111.297 50.9811C111.555 50.6304 111.909 50.4532 112.365 50.4826V50.4814Z" fill="#F7B519"/>
  </g>
  <defs>
  <filter id="filter0_dd_1_7453" x="81.4838" y="-0.00115967" width="60.1948" height="59.1281" filterUnits="userSpaceOnUse" color-interpolation-filters="sRGB">
  <feFlood flood-opacity="0" result="BackgroundImageFix"/>
  <feColorMatrix in="SourceAlpha" type="matrix" values="0 0 0 0 0 0 0 0 0 0 0 0 0 0 0 0 0 0 127 0" result="hardAlpha"/>
  <feOffset/>
  <feGaussianBlur stdDeviation="4"/>
  <feComposite in2="hardAlpha" operator="out"/>
  <feColorMatrix type="matrix" values="0 0 0 0 0 0 0 0 0 0 0 0 0 0 0 0 0 0 1 0"/>
  <feBlend mode="normal" in2="BackgroundImageFix" result="effect1_dropShadow_1_7453"/>
  <feColorMatrix in="SourceAlpha" type="matrix" values="0 0 0 0 0 0 0 0 0 0 0 0 0 0 0 0 0 0 127 0" result="hardAlpha"/>
  <feOffset/>
  <feGaussianBlur stdDeviation="8"/>
  <feComposite in2="hardAlpha" operator="out"/>
  <feColorMatrix type="matrix" values="0 0 0 0 0 0 0 0 0 0 0 0 0 0 0 0 0 0 1 0"/>
  <feBlend mode="normal" in2="effect1_dropShadow_1_7453" result="effect2_dropShadow_1_7453"/>
  <feBlend mode="normal" in="SourceGraphic" in2="effect2_dropShadow_1_7453" result="shape"/>
  </filter>
  <filter id="filter1_dd_1_7453" x="0" y="13.012" width="57.8799" height="63.9862" filterUnits="userSpaceOnUse" color-interpolation-filters="sRGB">
  <feFlood flood-opacity="0" result="BackgroundImageFix"/>
  <feColorMatrix in="SourceAlpha" type="matrix" values="0 0 0 0 0 0 0 0 0 0 0 0 0 0 0 0 0 0 127 0" result="hardAlpha"/>
  <feOffset/>
  <feGaussianBlur stdDeviation="4"/>
  <feComposite in2="hardAlpha" operator="out"/>
  <feColorMatrix type="matrix" values="0 0 0 0 0 0 0 0 0 0 0 0 0 0 0 0 0 0 1 0"/>
  <feBlend mode="normal" in2="BackgroundImageFix" result="effect1_dropShadow_1_7453"/>
  <feColorMatrix in="SourceAlpha" type="matrix" values="0 0 0 0 0 0 0 0 0 0 0 0 0 0 0 0 0 0 127 0" result="hardAlpha"/>
  <feOffset/>
  <feGaussianBlur stdDeviation="8"/>
  <feComposite in2="hardAlpha" operator="out"/>
  <feColorMatrix type="matrix" values="0 0 0 0 0 0 0 0 0 0 0 0 0 0 0 0 0 0 1 0"/>
  <feBlend mode="normal" in2="effect1_dropShadow_1_7453" result="effect2_dropShadow_1_7453"/>
  <feBlend mode="normal" in="SourceGraphic" in2="effect2_dropShadow_1_7453" result="shape"/>
  </filter>
  <filter id="filter2_dd_1_7453" x="4.51202" y="0.984222" width="75.6592" height="72.9839" filterUnits="userSpaceOnUse" color-interpolation-filters="sRGB">
  <feFlood flood-opacity="0" result="BackgroundImageFix"/>
  <feColorMatrix in="SourceAlpha" type="matrix" values="0 0 0 0 0 0 0 0 0 0 0 0 0 0 0 0 0 0 127 0" result="hardAlpha"/>
  <feOffset/>
  <feGaussianBlur stdDeviation="4"/>
  <feComposite in2="hardAlpha" operator="out"/>
  <feColorMatrix type="matrix" values="0 0 0 0 0 0 0 0 0 0 0 0 0 0 0 0 0 0 1 0"/>
  <feBlend mode="normal" in2="BackgroundImageFix" result="effect1_dropShadow_1_7453"/>
  <feColorMatrix in="SourceAlpha" type="matrix" values="0 0 0 0 0 0 0 0 0 0 0 0 0 0 0 0 0 0 127 0" result="hardAlpha"/>
  <feOffset/>
  <feGaussianBlur stdDeviation="8"/>
  <feComposite in2="hardAlpha" operator="out"/>
  <feColorMatrix type="matrix" values="0 0 0 0 0 0 0 0 0 0 0 0 0 0 0 0 0 0 1 0"/>
  <feBlend mode="normal" in2="effect1_dropShadow_1_7453" result="effect2_dropShadow_1_7453"/>
  <feBlend mode="normal" in="SourceGraphic" in2="effect2_dropShadow_1_7453" result="shape"/>
  </filter>
  <filter id="filter3_dd_1_7453" x="108.837" y="0.359528" width="66.9004" height="58.3348" filterUnits="userSpaceOnUse" color-interpolation-filters="sRGB">
  <feFlood flood-opacity="0" result="BackgroundImageFix"/>
  <feColorMatrix in="SourceAlpha" type="matrix" values="0 0 0 0 0 0 0 0 0 0 0 0 0 0 0 0 0 0 127 0" result="hardAlpha"/>
  <feOffset/>
  <feGaussianBlur stdDeviation="4"/>
  <feComposite in2="hardAlpha" operator="out"/>
  <feColorMatrix type="matrix" values="0 0 0 0 0 0 0 0 0 0 0 0 0 0 0 0 0 0 1 0"/>
  <feBlend mode="normal" in2="BackgroundImageFix" result="effect1_dropShadow_1_7453"/>
  <feColorMatrix in="SourceAlpha" type="matrix" values="0 0 0 0 0 0 0 0 0 0 0 0 0 0 0 0 0 0 127 0" result="hardAlpha"/>
  <feOffset/>
  <feGaussianBlur stdDeviation="8"/>
  <feComposite in2="hardAlpha" operator="out"/>
  <feColorMatrix type="matrix" values="0 0 0 0 0 0 0 0 0 0 0 0 0 0 0 0 0 0 1 0"/>
  <feBlend mode="normal" in2="effect1_dropShadow_1_7453" result="effect2_dropShadow_1_7453"/>
  <feBlend mode="normal" in="SourceGraphic" in2="effect2_dropShadow_1_7453" result="shape"/>
  </filter>
  <filter id="filter4_dd_1_7453" x="166.199" y="0.365936" width="53.4402" height="58.3308" filterUnits="userSpaceOnUse" color-interpolation-filters="sRGB">
  <feFlood flood-opacity="0" result="BackgroundImageFix"/>
  <feColorMatrix in="SourceAlpha" type="matrix" values="0 0 0 0 0 0 0 0 0 0 0 0 0 0 0 0 0 0 127 0" result="hardAlpha"/>
  <feOffset/>
  <feGaussianBlur stdDeviation="4"/>
  <feComposite in2="hardAlpha" operator="out"/>
  <feColorMatrix type="matrix" values="0 0 0 0 0 0 0 0 0 0 0 0 0 0 0 0 0 0 1 0"/>
  <feBlend mode="normal" in2="BackgroundImageFix" result="effect1_dropShadow_1_7453"/>
  <feColorMatrix in="SourceAlpha" type="matrix" values="0 0 0 0 0 0 0 0 0 0 0 0 0 0 0 0 0 0 127 0" result="hardAlpha"/>
  <feOffset/>
  <feGaussianBlur stdDeviation="8"/>
  <feComposite in2="hardAlpha" operator="out"/>
  <feColorMatrix type="matrix" values="0 0 0 0 0 0 0 0 0 0 0 0 0 0 0 0 0 0 1 0"/>
  <feBlend mode="normal" in2="effect1_dropShadow_1_7453" result="effect2_dropShadow_1_7453"/>
  <feBlend mode="normal" in="SourceGraphic" in2="effect2_dropShadow_1_7453" result="shape"/>
  </filter>
  <filter id="filter5_dd_1_7453" x="215.146" y="0.386047" width="53.4666" height="58.3071" filterUnits="userSpaceOnUse" color-interpolation-filters="sRGB">
  <feFlood flood-opacity="0" result="BackgroundImageFix"/>
  <feColorMatrix in="SourceAlpha" type="matrix" values="0 0 0 0 0 0 0 0 0 0 0 0 0 0 0 0 0 0 127 0" result="hardAlpha"/>
  <feOffset/>
  <feGaussianBlur stdDeviation="4"/>
  <feComposite in2="hardAlpha" operator="out"/>
  <feColorMatrix type="matrix" values="0 0 0 0 0 0 0 0 0 0 0 0 0 0 0 0 0 0 1 0"/>
  <feBlend mode="normal" in2="BackgroundImageFix" result="effect1_dropShadow_1_7453"/>
  <feColorMatrix in="SourceAlpha" type="matrix" values="0 0 0 0 0 0 0 0 0 0 0 0 0 0 0 0 0 0 127 0" result="hardAlpha"/>
  <feOffset/>
  <feGaussianBlur stdDeviation="8"/>
  <feComposite in2="hardAlpha" operator="out"/>
  <feColorMatrix type="matrix" values="0 0 0 0 0 0 0 0 0 0 0 0 0 0 0 0 0 0 1 0"/>
  <feBlend mode="normal" in2="effect1_dropShadow_1_7453" result="effect2_dropShadow_1_7453"/>
  <feBlend mode="normal" in="SourceGraphic" in2="effect2_dropShadow_1_7453" result="shape"/>
  </filter>
  <filter id="filter6_dd_1_7453" x="192.313" y="0.378967" width="52.6068" height="58.7388" filterUnits="userSpaceOnUse" color-interpolation-filters="sRGB">
  <feFlood flood-opacity="0" result="BackgroundImageFix"/>
  <feColorMatrix in="SourceAlpha" type="matrix" values="0 0 0 0 0 0 0 0 0 0 0 0 0 0 0 0 0 0 127 0" result="hardAlpha"/>
  <feOffset/>
  <feGaussianBlur stdDeviation="4"/>
  <feComposite in2="hardAlpha" operator="out"/>
  <feColorMatrix type="matrix" values="0 0 0 0 0 0 0 0 0 0 0 0 0 0 0 0 0 0 1 0"/>
  <feBlend mode="normal" in2="BackgroundImageFix" result="effect1_dropShadow_1_7453"/>
  <feColorMatrix in="SourceAlpha" type="matrix" values="0 0 0 0 0 0 0 0 0 0 0 0 0 0 0 0 0 0 127 0" result="hardAlpha"/>
  <feOffset/>
  <feGaussianBlur stdDeviation="8"/>
  <feComposite in2="hardAlpha" operator="out"/>
  <feColorMatrix type="matrix" values="0 0 0 0 0 0 0 0 0 0 0 0 0 0 0 0 0 0 1 0"/>
  <feBlend mode="normal" in2="effect1_dropShadow_1_7453" result="effect2_dropShadow_1_7453"/>
  <feBlend mode="normal" in="SourceGraphic" in2="effect2_dropShadow_1_7453" result="shape"/>
  </filter>
  <filter id="filter7_dd_1_7453" x="59.212" y="0.384186" width="53.342" height="58.3128" filterUnits="userSpaceOnUse" color-interpolation-filters="sRGB">
  <feFlood flood-opacity="0" result="BackgroundImageFix"/>
  <feColorMatrix in="SourceAlpha" type="matrix" values="0 0 0 0 0 0 0 0 0 0 0 0 0 0 0 0 0 0 127 0" result="hardAlpha"/>
  <feOffset/>
  <feGaussianBlur stdDeviation="4"/>
  <feComposite in2="hardAlpha" operator="out"/>
  <feColorMatrix type="matrix" values="0 0 0 0 0 0 0 0 0 0 0 0 0 0 0 0 0 0 1 0"/>
  <feBlend mode="normal" in2="BackgroundImageFix" result="effect1_dropShadow_1_7453"/>
  <feColorMatrix in="SourceAlpha" type="matrix" values="0 0 0 0 0 0 0 0 0 0 0 0 0 0 0 0 0 0 127 0" result="hardAlpha"/>
  <feOffset/>
  <feGaussianBlur stdDeviation="8"/>
  <feComposite in2="hardAlpha" operator="out"/>
  <feColorMatrix type="matrix" values="0 0 0 0 0 0 0 0 0 0 0 0 0 0 0 0 0 0 1 0"/>
  <feBlend mode="normal" in2="effect1_dropShadow_1_7453" result="effect2_dropShadow_1_7453"/>
  <feBlend mode="normal" in="SourceGraphic" in2="effect2_dropShadow_1_7453" result="shape"/>
  </filter>
  <filter id="filter8_dd_1_7453" x="145.977" y="0.38623" width="50.3068" height="58.3124" filterUnits="userSpaceOnUse" color-interpolation-filters="sRGB">
  <feFlood flood-opacity="0" result="BackgroundImageFix"/>
  <feColorMatrix in="SourceAlpha" type="matrix" values="0 0 0 0 0 0 0 0 0 0 0 0 0 0 0 0 0 0 127 0" result="hardAlpha"/>
  <feOffset/>
  <feGaussianBlur stdDeviation="4"/>
  <feComposite in2="hardAlpha" operator="out"/>
  <feColorMatrix type="matrix" values="0 0 0 0 0 0 0 0 0 0 0 0 0 0 0 0 0 0 1 0"/>
  <feBlend mode="normal" in2="BackgroundImageFix" result="effect1_dropShadow_1_7453"/>
  <feColorMatrix in="SourceAlpha" type="matrix" values="0 0 0 0 0 0 0 0 0 0 0 0 0 0 0 0 0 0 127 0" result="hardAlpha"/>
  <feOffset/>
  <feGaussianBlur stdDeviation="8"/>
  <feComposite in2="hardAlpha" operator="out"/>
  <feColorMatrix type="matrix" values="0 0 0 0 0 0 0 0 0 0 0 0 0 0 0 0 0 0 1 0"/>
  <feBlend mode="normal" in2="effect1_dropShadow_1_7453" result="effect2_dropShadow_1_7453"/>
  <feBlend mode="normal" in="SourceGraphic" in2="effect2_dropShadow_1_7453" result="shape"/>
  </filter>
  <filter id="filter9_dd_1_7453" x="192.07" y="36.5009" width="40.963" height="39.7106" filterUnits="userSpaceOnUse" color-interpolation-filters="sRGB">
  <feFlood flood-opacity="0" result="BackgroundImageFix"/>
  <feColorMatrix in="SourceAlpha" type="matrix" values="0 0 0 0 0 0 0 0 0 0 0 0 0 0 0 0 0 0 127 0" result="hardAlpha"/>
  <feOffset/>
  <feGaussianBlur stdDeviation="4"/>
  <feComposite in2="hardAlpha" operator="out"/>
  <feColorMatrix type="matrix" values="0 0 0 0 0 0 0 0 0 0 0 0 0 0 0 0 0 0 1 0"/>
  <feBlend mode="normal" in2="BackgroundImageFix" result="effect1_dropShadow_1_7453"/>
  <feColorMatrix in="SourceAlpha" type="matrix" values="0 0 0 0 0 0 0 0 0 0 0 0 0 0 0 0 0 0 127 0" result="hardAlpha"/>
  <feOffset/>
  <feGaussianBlur stdDeviation="8"/>
  <feComposite in2="hardAlpha" operator="out"/>
  <feColorMatrix type="matrix" values="0 0 0 0 0 0 0 0 0 0 0 0 0 0 0 0 0 0 1 0"/>
  <feBlend mode="normal" in2="effect1_dropShadow_1_7453" result="effect2_dropShadow_1_7453"/>
  <feBlend mode="normal" in="SourceGraphic" in2="effect2_dropShadow_1_7453" result="shape"/>
  </filter>
  <filter id="filter10_dd_1_7453" x="213.505" y="36.5986" width="38.284" height="39.6376" filterUnits="userSpaceOnUse" color-interpolation-filters="sRGB">
  <feFlood flood-opacity="0" result="BackgroundImageFix"/>
  <feColorMatrix in="SourceAlpha" type="matrix" values="0 0 0 0 0 0 0 0 0 0 0 0 0 0 0 0 0 0 127 0" result="hardAlpha"/>
  <feOffset/>
  <feGaussianBlur stdDeviation="4"/>
  <feComposite in2="hardAlpha" operator="out"/>
  <feColorMatrix type="matrix" values="0 0 0 0 0 0 0 0 0 0 0 0 0 0 0 0 0 0 1 0"/>
  <feBlend mode="normal" in2="BackgroundImageFix" result="effect1_dropShadow_1_7453"/>
  <feColorMatrix in="SourceAlpha" type="matrix" values="0 0 0 0 0 0 0 0 0 0 0 0 0 0 0 0 0 0 127 0" result="hardAlpha"/>
  <feOffset/>
  <feGaussianBlur stdDeviation="8"/>
  <feComposite in2="hardAlpha" operator="out"/>
  <feColorMatrix type="matrix" values="0 0 0 0 0 0 0 0 0 0 0 0 0 0 0 0 0 0 1 0"/>
  <feBlend mode="normal" in2="effect1_dropShadow_1_7453" result="effect2_dropShadow_1_7453"/>
  <feBlend mode="normal" in="SourceGraphic" in2="effect2_dropShadow_1_7453" result="shape"/>
  </filter>
  <filter id="filter11_dd_1_7453" x="157.153" y="36.6134" width="37.5259" height="39.6353" filterUnits="userSpaceOnUse" color-interpolation-filters="sRGB">
  <feFlood flood-opacity="0" result="BackgroundImageFix"/>
  <feColorMatrix in="SourceAlpha" type="matrix" values="0 0 0 0 0 0 0 0 0 0 0 0 0 0 0 0 0 0 127 0" result="hardAlpha"/>
  <feOffset/>
  <feGaussianBlur stdDeviation="4"/>
  <feComposite in2="hardAlpha" operator="out"/>
  <feColorMatrix type="matrix" values="0 0 0 0 0 0 0 0 0 0 0 0 0 0 0 0 0 0 1 0"/>
  <feBlend mode="normal" in2="BackgroundImageFix" result="effect1_dropShadow_1_7453"/>
  <feColorMatrix in="SourceAlpha" type="matrix" values="0 0 0 0 0 0 0 0 0 0 0 0 0 0 0 0 0 0 127 0" result="hardAlpha"/>
  <feOffset/>
  <feGaussianBlur stdDeviation="8"/>
  <feComposite in2="hardAlpha" operator="out"/>
  <feColorMatrix type="matrix" values="0 0 0 0 0 0 0 0 0 0 0 0 0 0 0 0 0 0 1 0"/>
  <feBlend mode="normal" in2="effect1_dropShadow_1_7453" result="effect2_dropShadow_1_7453"/>
  <feBlend mode="normal" in="SourceGraphic" in2="effect2_dropShadow_1_7453" result="shape"/>
  </filter>
  <filter id="filter12_dd_1_7453" x="183.756" y="36.5938" width="37.5137" height="39.6549" filterUnits="userSpaceOnUse" color-interpolation-filters="sRGB">
  <feFlood flood-opacity="0" result="BackgroundImageFix"/>
  <feColorMatrix in="SourceAlpha" type="matrix" values="0 0 0 0 0 0 0 0 0 0 0 0 0 0 0 0 0 0 127 0" result="hardAlpha"/>
  <feOffset/>
  <feGaussianBlur stdDeviation="4"/>
  <feComposite in2="hardAlpha" operator="out"/>
  <feColorMatrix type="matrix" values="0 0 0 0 0 0 0 0 0 0 0 0 0 0 0 0 0 0 1 0"/>
  <feBlend mode="normal" in2="BackgroundImageFix" result="effect1_dropShadow_1_7453"/>
  <feColorMatrix in="SourceAlpha" type="matrix" values="0 0 0 0 0 0 0 0 0 0 0 0 0 0 0 0 0 0 127 0" result="hardAlpha"/>
  <feOffset/>
  <feGaussianBlur stdDeviation="8"/>
  <feComposite in2="hardAlpha" operator="out"/>
  <feColorMatrix type="matrix" values="0 0 0 0 0 0 0 0 0 0 0 0 0 0 0 0 0 0 1 0"/>
  <feBlend mode="normal" in2="effect1_dropShadow_1_7453" result="effect2_dropShadow_1_7453"/>
  <feBlend mode="normal" in="SourceGraphic" in2="effect2_dropShadow_1_7453" result="shape"/>
  </filter>
  <filter id="filter13_dd_1_7453" x="117.494" y="36.6009" width="37.8107" height="39.6197" filterUnits="userSpaceOnUse" color-interpolation-filters="sRGB">
  <feFlood flood-opacity="0" result="BackgroundImageFix"/>
  <feColorMatrix in="SourceAlpha" type="matrix" values="0 0 0 0 0 0 0 0 0 0 0 0 0 0 0 0 0 0 127 0" result="hardAlpha"/>
  <feOffset/>
  <feGaussianBlur stdDeviation="4"/>
  <feComposite in2="hardAlpha" operator="out"/>
  <feColorMatrix type="matrix" values="0 0 0 0 0 0 0 0 0 0 0 0 0 0 0 0 0 0 1 0"/>
  <feBlend mode="normal" in2="BackgroundImageFix" result="effect1_dropShadow_1_7453"/>
  <feColorMatrix in="SourceAlpha" type="matrix" values="0 0 0 0 0 0 0 0 0 0 0 0 0 0 0 0 0 0 127 0" result="hardAlpha"/>
  <feOffset/>
  <feGaussianBlur stdDeviation="8"/>
  <feComposite in2="hardAlpha" operator="out"/>
  <feColorMatrix type="matrix" values="0 0 0 0 0 0 0 0 0 0 0 0 0 0 0 0 0 0 1 0"/>
  <feBlend mode="normal" in2="effect1_dropShadow_1_7453" result="effect2_dropShadow_1_7453"/>
  <feBlend mode="normal" in="SourceGraphic" in2="effect2_dropShadow_1_7453" result="shape"/>
  </filter>
  <filter id="filter14_dd_1_7453" x="173.784" y="36.4988" width="38.6439" height="39.8233" filterUnits="userSpaceOnUse" color-interpolation-filters="sRGB">
  <feFlood flood-opacity="0" result="BackgroundImageFix"/>
  <feColorMatrix in="SourceAlpha" type="matrix" values="0 0 0 0 0 0 0 0 0 0 0 0 0 0 0 0 0 0 127 0" result="hardAlpha"/>
  <feOffset/>
  <feGaussianBlur stdDeviation="4"/>
  <feComposite in2="hardAlpha" operator="out"/>
  <feColorMatrix type="matrix" values="0 0 0 0 0 0 0 0 0 0 0 0 0 0 0 0 0 0 1 0"/>
  <feBlend mode="normal" in2="BackgroundImageFix" result="effect1_dropShadow_1_7453"/>
  <feColorMatrix in="SourceAlpha" type="matrix" values="0 0 0 0 0 0 0 0 0 0 0 0 0 0 0 0 0 0 127 0" result="hardAlpha"/>
  <feOffset/>
  <feGaussianBlur stdDeviation="8"/>
  <feComposite in2="hardAlpha" operator="out"/>
  <feColorMatrix type="matrix" values="0 0 0 0 0 0 0 0 0 0 0 0 0 0 0 0 0 0 1 0"/>
  <feBlend mode="normal" in2="effect1_dropShadow_1_7453" result="effect2_dropShadow_1_7453"/>
  <feBlend mode="normal" in="SourceGraphic" in2="effect2_dropShadow_1_7453" result="shape"/>
  </filter>
  <filter id="filter15_dd_1_7453" x="103.002" y="36.5028" width="38.6359" height="39.8217" filterUnits="userSpaceOnUse" color-interpolation-filters="sRGB">
  <feFlood flood-opacity="0" result="BackgroundImageFix"/>
  <feColorMatrix in="SourceAlpha" type="matrix" values="0 0 0 0 0 0 0 0 0 0 0 0 0 0 0 0 0 0 127 0" result="hardAlpha"/>
  <feOffset/>
  <feGaussianBlur stdDeviation="4"/>
  <feComposite in2="hardAlpha" operator="out"/>
  <feColorMatrix type="matrix" values="0 0 0 0 0 0 0 0 0 0 0 0 0 0 0 0 0 0 1 0"/>
  <feBlend mode="normal" in2="BackgroundImageFix" result="effect1_dropShadow_1_7453"/>
  <feColorMatrix in="SourceAlpha" type="matrix" values="0 0 0 0 0 0 0 0 0 0 0 0 0 0 0 0 0 0 127 0" result="hardAlpha"/>
  <feOffset/>
  <feGaussianBlur stdDeviation="8"/>
  <feComposite in2="hardAlpha" operator="out"/>
  <feColorMatrix type="matrix" values="0 0 0 0 0 0 0 0 0 0 0 0 0 0 0 0 0 0 1 0"/>
  <feBlend mode="normal" in2="effect1_dropShadow_1_7453" result="effect2_dropShadow_1_7453"/>
  <feBlend mode="normal" in="SourceGraphic" in2="effect2_dropShadow_1_7453" result="shape"/>
  </filter>
  <filter id="filter16_dd_1_7453" x="93.5574" y="36.5025" width="39.0443" height="39.7191" filterUnits="userSpaceOnUse" color-interpolation-filters="sRGB">
  <feFlood flood-opacity="0" result="BackgroundImageFix"/>
  <feColorMatrix in="SourceAlpha" type="matrix" values="0 0 0 0 0 0 0 0 0 0 0 0 0 0 0 0 0 0 127 0" result="hardAlpha"/>
  <feOffset/>
  <feGaussianBlur stdDeviation="4"/>
  <feComposite in2="hardAlpha" operator="out"/>
  <feColorMatrix type="matrix" values="0 0 0 0 0 0 0 0 0 0 0 0 0 0 0 0 0 0 1 0"/>
  <feBlend mode="normal" in2="BackgroundImageFix" result="effect1_dropShadow_1_7453"/>
  <feColorMatrix in="SourceAlpha" type="matrix" values="0 0 0 0 0 0 0 0 0 0 0 0 0 0 0 0 0 0 127 0" result="hardAlpha"/>
  <feOffset/>
  <feGaussianBlur stdDeviation="8"/>
  <feComposite in2="hardAlpha" operator="out"/>
  <feColorMatrix type="matrix" values="0 0 0 0 0 0 0 0 0 0 0 0 0 0 0 0 0 0 1 0"/>
  <feBlend mode="normal" in2="effect1_dropShadow_1_7453" result="effect2_dropShadow_1_7453"/>
  <feBlend mode="normal" in="SourceGraphic" in2="effect2_dropShadow_1_7453" result="shape"/>
  </filter>
  <filter id="filter17_dd_1_7453" x="203.453" y="36.5025" width="39.0279" height="39.7148" filterUnits="userSpaceOnUse" color-interpolation-filters="sRGB">
  <feFlood flood-opacity="0" result="BackgroundImageFix"/>
  <feColorMatrix in="SourceAlpha" type="matrix" values="0 0 0 0 0 0 0 0 0 0 0 0 0 0 0 0 0 0 127 0" result="hardAlpha"/>
  <feOffset/>
  <feGaussianBlur stdDeviation="4"/>
  <feComposite in2="hardAlpha" operator="out"/>
  <feColorMatrix type="matrix" values="0 0 0 0 0 0 0 0 0 0 0 0 0 0 0 0 0 0 1 0"/>
  <feBlend mode="normal" in2="BackgroundImageFix" result="effect1_dropShadow_1_7453"/>
  <feColorMatrix in="SourceAlpha" type="matrix" values="0 0 0 0 0 0 0 0 0 0 0 0 0 0 0 0 0 0 127 0" result="hardAlpha"/>
  <feOffset/>
  <feGaussianBlur stdDeviation="8"/>
  <feComposite in2="hardAlpha" operator="out"/>
  <feColorMatrix type="matrix" values="0 0 0 0 0 0 0 0 0 0 0 0 0 0 0 0 0 0 1 0"/>
  <feBlend mode="normal" in2="effect1_dropShadow_1_7453" result="effect2_dropShadow_1_7453"/>
  <feBlend mode="normal" in="SourceGraphic" in2="effect2_dropShadow_1_7453" result="shape"/>
  </filter>
  <filter id="filter18_dd_1_7453" x="231.68" y="36.6161" width="37.3218" height="39.5936" filterUnits="userSpaceOnUse" color-interpolation-filters="sRGB">
  <feFlood flood-opacity="0" result="BackgroundImageFix"/>
  <feColorMatrix in="SourceAlpha" type="matrix" values="0 0 0 0 0 0 0 0 0 0 0 0 0 0 0 0 0 0 127 0" result="hardAlpha"/>
  <feOffset/>
  <feGaussianBlur stdDeviation="4"/>
  <feComposite in2="hardAlpha" operator="out"/>
  <feColorMatrix type="matrix" values="0 0 0 0 0 0 0 0 0 0 0 0 0 0 0 0 0 0 1 0"/>
  <feBlend mode="normal" in2="BackgroundImageFix" result="effect1_dropShadow_1_7453"/>
  <feColorMatrix in="SourceAlpha" type="matrix" values="0 0 0 0 0 0 0 0 0 0 0 0 0 0 0 0 0 0 127 0" result="hardAlpha"/>
  <feOffset/>
  <feGaussianBlur stdDeviation="8"/>
  <feComposite in2="hardAlpha" operator="out"/>
  <feColorMatrix type="matrix" values="0 0 0 0 0 0 0 0 0 0 0 0 0 0 0 0 0 0 1 0"/>
  <feBlend mode="normal" in2="effect1_dropShadow_1_7453" result="effect2_dropShadow_1_7453"/>
  <feBlend mode="normal" in="SourceGraphic" in2="effect2_dropShadow_1_7453" result="shape"/>
  </filter>
  <filter id="filter19_dd_1_7453" x="139.731" y="36.6092" width="37.5403" height="39.5996" filterUnits="userSpaceOnUse" color-interpolation-filters="sRGB">
  <feFlood flood-opacity="0" result="BackgroundImageFix"/>
  <feColorMatrix in="SourceAlpha" type="matrix" values="0 0 0 0 0 0 0 0 0 0 0 0 0 0 0 0 0 0 127 0" result="hardAlpha"/>
  <feOffset/>
  <feGaussianBlur stdDeviation="4"/>
  <feComposite in2="hardAlpha" operator="out"/>
  <feColorMatrix type="matrix" values="0 0 0 0 0 0 0 0 0 0 0 0 0 0 0 0 0 0 1 0"/>
  <feBlend mode="normal" in2="BackgroundImageFix" result="effect1_dropShadow_1_7453"/>
  <feColorMatrix in="SourceAlpha" type="matrix" values="0 0 0 0 0 0 0 0 0 0 0 0 0 0 0 0 0 0 127 0" result="hardAlpha"/>
  <feOffset/>
  <feGaussianBlur stdDeviation="8"/>
  <feComposite in2="hardAlpha" operator="out"/>
  <feColorMatrix type="matrix" values="0 0 0 0 0 0 0 0 0 0 0 0 0 0 0 0 0 0 1 0"/>
  <feBlend mode="normal" in2="effect1_dropShadow_1_7453" result="effect2_dropShadow_1_7453"/>
  <feBlend mode="normal" in="SourceGraphic" in2="effect2_dropShadow_1_7453" result="shape"/>
  </filter>
  <filter id="filter20_dd_1_7453" x="148.583" y="36.6145" width="37.2977" height="39.5952" filterUnits="userSpaceOnUse" color-interpolation-filters="sRGB">
  <feFlood flood-opacity="0" result="BackgroundImageFix"/>
  <feColorMatrix in="SourceAlpha" type="matrix" values="0 0 0 0 0 0 0 0 0 0 0 0 0 0 0 0 0 0 127 0" result="hardAlpha"/>
  <feOffset/>
  <feGaussianBlur stdDeviation="4"/>
  <feComposite in2="hardAlpha" operator="out"/>
  <feColorMatrix type="matrix" values="0 0 0 0 0 0 0 0 0 0 0 0 0 0 0 0 0 0 1 0"/>
  <feBlend mode="normal" in2="BackgroundImageFix" result="effect1_dropShadow_1_7453"/>
  <feColorMatrix in="SourceAlpha" type="matrix" values="0 0 0 0 0 0 0 0 0 0 0 0 0 0 0 0 0 0 127 0" result="hardAlpha"/>
  <feOffset/>
  <feGaussianBlur stdDeviation="8"/>
  <feComposite in2="hardAlpha" operator="out"/>
  <feColorMatrix type="matrix" values="0 0 0 0 0 0 0 0 0 0 0 0 0 0 0 0 0 0 1 0"/>
  <feBlend mode="normal" in2="effect1_dropShadow_1_7453" result="effect2_dropShadow_1_7453"/>
  <feBlend mode="normal" in="SourceGraphic" in2="effect2_dropShadow_1_7453" result="shape"/>
  </filter>
  <filter id="filter21_dd_1_7453" x="70.189" y="36.6113" width="37.2798" height="39.5998" filterUnits="userSpaceOnUse" color-interpolation-filters="sRGB">
  <feFlood flood-opacity="0" result="BackgroundImageFix"/>
  <feColorMatrix in="SourceAlpha" type="matrix" values="0 0 0 0 0 0 0 0 0 0 0 0 0 0 0 0 0 0 127 0" result="hardAlpha"/>
  <feOffset/>
  <feGaussianBlur stdDeviation="4"/>
  <feComposite in2="hardAlpha" operator="out"/>
  <feColorMatrix type="matrix" values="0 0 0 0 0 0 0 0 0 0 0 0 0 0 0 0 0 0 1 0"/>
  <feBlend mode="normal" in2="BackgroundImageFix" result="effect1_dropShadow_1_7453"/>
  <feColorMatrix in="SourceAlpha" type="matrix" values="0 0 0 0 0 0 0 0 0 0 0 0 0 0 0 0 0 0 127 0" result="hardAlpha"/>
  <feOffset/>
  <feGaussianBlur stdDeviation="8"/>
  <feComposite in2="hardAlpha" operator="out"/>
  <feColorMatrix type="matrix" values="0 0 0 0 0 0 0 0 0 0 0 0 0 0 0 0 0 0 1 0"/>
  <feBlend mode="normal" in2="effect1_dropShadow_1_7453" result="effect2_dropShadow_1_7453"/>
  <feBlend mode="normal" in="SourceGraphic" in2="effect2_dropShadow_1_7453" result="shape"/>
  </filter>
  <filter id="filter22_dd_1_7453" x="126.651" y="36.6108" width="37.2919" height="39.5998" filterUnits="userSpaceOnUse" color-interpolation-filters="sRGB">
  <feFlood flood-opacity="0" result="BackgroundImageFix"/>
  <feColorMatrix in="SourceAlpha" type="matrix" values="0 0 0 0 0 0 0 0 0 0 0 0 0 0 0 0 0 0 127 0" result="hardAlpha"/>
  <feOffset/>
  <feGaussianBlur stdDeviation="4"/>
  <feComposite in2="hardAlpha" operator="out"/>
  <feColorMatrix type="matrix" values="0 0 0 0 0 0 0 0 0 0 0 0 0 0 0 0 0 0 1 0"/>
  <feBlend mode="normal" in2="BackgroundImageFix" result="effect1_dropShadow_1_7453"/>
  <feColorMatrix in="SourceAlpha" type="matrix" values="0 0 0 0 0 0 0 0 0 0 0 0 0 0 0 0 0 0 127 0" result="hardAlpha"/>
  <feOffset/>
  <feGaussianBlur stdDeviation="8"/>
  <feComposite in2="hardAlpha" operator="out"/>
  <feColorMatrix type="matrix" values="0 0 0 0 0 0 0 0 0 0 0 0 0 0 0 0 0 0 1 0"/>
  <feBlend mode="normal" in2="effect1_dropShadow_1_7453" result="effect2_dropShadow_1_7453"/>
  <feBlend mode="normal" in="SourceGraphic" in2="effect2_dropShadow_1_7453" result="shape"/>
  </filter>
  <filter id="filter23_dd_1_7453" x="60.7647" y="36.5007" width="37.9172" height="39.8347" filterUnits="userSpaceOnUse" color-interpolation-filters="sRGB">
  <feFlood flood-opacity="0" result="BackgroundImageFix"/>
  <feColorMatrix in="SourceAlpha" type="matrix" values="0 0 0 0 0 0 0 0 0 0 0 0 0 0 0 0 0 0 127 0" result="hardAlpha"/>
  <feOffset/>
  <feGaussianBlur stdDeviation="4"/>
  <feComposite in2="hardAlpha" operator="out"/>
  <feColorMatrix type="matrix" values="0 0 0 0 0 0 0 0 0 0 0 0 0 0 0 0 0 0 1 0"/>
  <feBlend mode="normal" in2="BackgroundImageFix" result="effect1_dropShadow_1_7453"/>
  <feColorMatrix in="SourceAlpha" type="matrix" values="0 0 0 0 0 0 0 0 0 0 0 0 0 0 0 0 0 0 127 0" result="hardAlpha"/>
  <feOffset/>
  <feGaussianBlur stdDeviation="8"/>
  <feComposite in2="hardAlpha" operator="out"/>
  <feColorMatrix type="matrix" values="0 0 0 0 0 0 0 0 0 0 0 0 0 0 0 0 0 0 1 0"/>
  <feBlend mode="normal" in2="effect1_dropShadow_1_7453" result="effect2_dropShadow_1_7453"/>
  <feBlend mode="normal" in="SourceGraphic" in2="effect2_dropShadow_1_7453" result="shape"/>
  </filter>
  <filter id="filter24_dd_1_7453" x="78.2564" y="36.504" width="37.0231" height="39.8203" filterUnits="userSpaceOnUse" color-interpolation-filters="sRGB">
  <feFlood flood-opacity="0" result="BackgroundImageFix"/>
  <feColorMatrix in="SourceAlpha" type="matrix" values="0 0 0 0 0 0 0 0 0 0 0 0 0 0 0 0 0 0 127 0" result="hardAlpha"/>
  <feOffset/>
  <feGaussianBlur stdDeviation="4"/>
  <feComposite in2="hardAlpha" operator="out"/>
  <feColorMatrix type="matrix" values="0 0 0 0 0 0 0 0 0 0 0 0 0 0 0 0 0 0 1 0"/>
  <feBlend mode="normal" in2="BackgroundImageFix" result="effect1_dropShadow_1_7453"/>
  <feColorMatrix in="SourceAlpha" type="matrix" values="0 0 0 0 0 0 0 0 0 0 0 0 0 0 0 0 0 0 127 0" result="hardAlpha"/>
  <feOffset/>
  <feGaussianBlur stdDeviation="8"/>
  <feComposite in2="hardAlpha" operator="out"/>
  <feColorMatrix type="matrix" values="0 0 0 0 0 0 0 0 0 0 0 0 0 0 0 0 0 0 1 0"/>
  <feBlend mode="normal" in2="effect1_dropShadow_1_7453" result="effect2_dropShadow_1_7453"/>
  <feBlend mode="normal" in="SourceGraphic" in2="effect2_dropShadow_1_7453" result="shape"/>
  </filter>
  <filter id="filter25_dd_1_7453" x="166.095" y="36.6119" width="37.084" height="39.6026" filterUnits="userSpaceOnUse" color-interpolation-filters="sRGB">
  <feFlood flood-opacity="0" result="BackgroundImageFix"/>
  <feColorMatrix in="SourceAlpha" type="matrix" values="0 0 0 0 0 0 0 0 0 0 0 0 0 0 0 0 0 0 127 0" result="hardAlpha"/>
  <feOffset/>
  <feGaussianBlur stdDeviation="4"/>
  <feComposite in2="hardAlpha" operator="out"/>
  <feColorMatrix type="matrix" values="0 0 0 0 0 0 0 0 0 0 0 0 0 0 0 0 0 0 1 0"/>
  <feBlend mode="normal" in2="BackgroundImageFix" result="effect1_dropShadow_1_7453"/>
  <feColorMatrix in="SourceAlpha" type="matrix" values="0 0 0 0 0 0 0 0 0 0 0 0 0 0 0 0 0 0 127 0" result="hardAlpha"/>
  <feOffset/>
  <feGaussianBlur stdDeviation="8"/>
  <feComposite in2="hardAlpha" operator="out"/>
  <feColorMatrix type="matrix" values="0 0 0 0 0 0 0 0 0 0 0 0 0 0 0 0 0 0 1 0"/>
  <feBlend mode="normal" in2="effect1_dropShadow_1_7453" result="effect2_dropShadow_1_7453"/>
  <feBlend mode="normal" in="SourceGraphic" in2="effect2_dropShadow_1_7453" result="shape"/>
  </filter>
  <filter id="filter26_dd_1_7453" x="223.115" y="36.5053" width="37.2981" height="39.8227" filterUnits="userSpaceOnUse" color-interpolation-filters="sRGB">
  <feFlood flood-opacity="0" result="BackgroundImageFix"/>
  <feColorMatrix in="SourceAlpha" type="matrix" values="0 0 0 0 0 0 0 0 0 0 0 0 0 0 0 0 0 0 127 0" result="hardAlpha"/>
  <feOffset/>
  <feGaussianBlur stdDeviation="4"/>
  <feComposite in2="hardAlpha" operator="out"/>
  <feColorMatrix type="matrix" values="0 0 0 0 0 0 0 0 0 0 0 0 0 0 0 0 0 0 1 0"/>
  <feBlend mode="normal" in2="BackgroundImageFix" result="effect1_dropShadow_1_7453"/>
  <feColorMatrix in="SourceAlpha" type="matrix" values="0 0 0 0 0 0 0 0 0 0 0 0 0 0 0 0 0 0 127 0" result="hardAlpha"/>
  <feOffset/>
  <feGaussianBlur stdDeviation="8"/>
  <feComposite in2="hardAlpha" operator="out"/>
  <feColorMatrix type="matrix" values="0 0 0 0 0 0 0 0 0 0 0 0 0 0 0 0 0 0 1 0"/>
  <feBlend mode="normal" in2="effect1_dropShadow_1_7453" result="effect2_dropShadow_1_7453"/>
  <feBlend mode="normal" in="SourceGraphic" in2="effect2_dropShadow_1_7453" result="shape"/>
  </filter>
  <filter id="filter27_dd_1_7453" x="85.6649" y="36.6175" width="38.3035" height="39.5943" filterUnits="userSpaceOnUse" color-interpolation-filters="sRGB">
  <feFlood flood-opacity="0" result="BackgroundImageFix"/>
  <feColorMatrix in="SourceAlpha" type="matrix" values="0 0 0 0 0 0 0 0 0 0 0 0 0 0 0 0 0 0 127 0" result="hardAlpha"/>
  <feOffset/>
  <feGaussianBlur stdDeviation="4"/>
  <feComposite in2="hardAlpha" operator="out"/>
  <feColorMatrix type="matrix" values="0 0 0 0 0 0 0 0 0 0 0 0 0 0 0 0 0 0 1 0"/>
  <feBlend mode="normal" in2="BackgroundImageFix" result="effect1_dropShadow_1_7453"/>
  <feColorMatrix in="SourceAlpha" type="matrix" values="0 0 0 0 0 0 0 0 0 0 0 0 0 0 0 0 0 0 127 0" result="hardAlpha"/>
  <feOffset/>
  <feGaussianBlur stdDeviation="8"/>
  <feComposite in2="hardAlpha" operator="out"/>
  <feColorMatrix type="matrix" values="0 0 0 0 0 0 0 0 0 0 0 0 0 0 0 0 0 0 1 0"/>
  <feBlend mode="normal" in2="effect1_dropShadow_1_7453" result="effect2_dropShadow_1_7453"/>
  <feBlend mode="normal" in="SourceGraphic" in2="effect2_dropShadow_1_7453" result="shape"/>
  </filter>
  <filter id="filter28_dd_1_7453" x="95.1746" y="34.4751" width="35.8258" height="33.2723" filterUnits="userSpaceOnUse" color-interpolation-filters="sRGB">
  <feFlood flood-opacity="0" result="BackgroundImageFix"/>
  <feColorMatrix in="SourceAlpha" type="matrix" values="0 0 0 0 0 0 0 0 0 0 0 0 0 0 0 0 0 0 127 0" result="hardAlpha"/>
  <feOffset/>
  <feGaussianBlur stdDeviation="4"/>
  <feComposite in2="hardAlpha" operator="out"/>
  <feColorMatrix type="matrix" values="0 0 0 0 0 0 0 0 0 0 0 0 0 0 0 0 0 0 1 0"/>
  <feBlend mode="normal" in2="BackgroundImageFix" result="effect1_dropShadow_1_7453"/>
  <feColorMatrix in="SourceAlpha" type="matrix" values="0 0 0 0 0 0 0 0 0 0 0 0 0 0 0 0 0 0 127 0" result="hardAlpha"/>
  <feOffset/>
  <feGaussianBlur stdDeviation="8"/>
  <feComposite in2="hardAlpha" operator="out"/>
  <feColorMatrix type="matrix" values="0 0 0 0 0 0 0 0 0 0 0 0 0 0 0 0 0 0 1 0"/>
  <feBlend mode="normal" in2="effect1_dropShadow_1_7453" result="effect2_dropShadow_1_7453"/>
  <feBlend mode="normal" in="SourceGraphic" in2="effect2_dropShadow_1_7453" result="shape"/>
  </filter>
  </defs>
  </svg>
  