<svg width="36" height="36" viewBox="0 0 36 36" fill="none" xmlns="http://www.w3.org/2000/svg">
  <path d="M11.125 17.4375H24.875C25.0242 17.4375 25.1673 17.4968 25.2727 17.6023C25.3782 17.7077 25.4375 17.8508 25.4375 18C25.4375 18.1492 25.3782 18.2923 25.2727 18.3977C25.1673 18.5032 25.0242 18.5625 24.875 18.5625H11.125C10.9758 18.5625 10.8327 18.5032 10.7273 18.3977C10.6218 18.2923 10.5625 18.1492 10.5625 18C10.5625 17.8508 10.6218 17.7077 10.7273 17.6023C10.8327 17.4968 10.9758 17.4375 11.125 17.4375Z" fill="#CDD5DF" stroke="#CDD5DF" stroke-width="0.125"/>
  <path d="M24.875 13.5625H11.125C10.9758 13.5625 10.8327 13.5032 10.7273 13.3977C10.6218 13.2923 10.5625 13.1492 10.5625 13C10.5625 12.8508 10.6218 12.7077 10.7273 12.6023C10.8327 12.4968 10.9758 12.4375 11.125 12.4375H24.875C25.0242 12.4375 25.1673 12.4968 25.2727 12.6023C25.3782 12.7077 25.4375 12.8508 25.4375 13C25.4375 13.1492 25.3782 13.2923 25.2727 13.3977C25.1673 13.5032 25.0242 13.5625 24.875 13.5625Z" fill="#CDD5DF" stroke="#CDD5DF" stroke-width="0.125"/>
  <path d="M24.875 22.375H11.125C10.9592 22.375 10.8003 22.4408 10.6831 22.5581C10.5658 22.6753 10.5 22.8342 10.5 23C10.5 23.1658 10.5658 23.3247 10.6831 23.4419C10.8003 23.5592 10.9592 23.625 11.125 23.625H24.875C25.0408 23.625 25.1997 23.5592 25.3169 23.4419C25.4342 23.3247 25.5 23.1658 25.5 23C25.5 22.8342 25.4342 22.6753 25.3169 22.5581C25.1997 22.4408 25.0408 22.375 24.875 22.375Z" fill="#CDD5DF"/>
  </svg>
  